<?xml version="1.0" encoding="UTF-8" standalone="no"?>
<!-- Created with Inkscape (http://www.inkscape.org/) -->

<svg
   xmlns:dc="http://purl.org/dc/elements/1.1/"
   xmlns:cc="http://creativecommons.org/ns#"
   xmlns:rdf="http://www.w3.org/1999/02/22-rdf-syntax-ns#"
   xmlns:svg="http://www.w3.org/2000/svg"
   xmlns="http://www.w3.org/2000/svg"
   xmlns:sodipodi="http://sodipodi.sourceforge.net/DTD/sodipodi-0.dtd"
   xmlns:inkscape="http://www.inkscape.org/namespaces/inkscape"
   width="158.79633"
   height="44.62278"
   viewBox="0 0 42.01486 11.806444"
   version="1.1"
   id="svg23345"
   inkscape:version="0.92.4 (5da689c313, 2019-01-14)"
   sodipodi:docname="buckhardt compression.svg">
  <defs
     id="defs23339" />
  <sodipodi:namedview
     id="base"
     pagecolor="#ffffff"
     bordercolor="#666666"
     borderopacity="1.0"
     inkscape:pageopacity="0.0"
     inkscape:pageshadow="2"
     inkscape:zoom="11.153618"
     inkscape:cx="76.872966"
     inkscape:cy="21.811389"
     inkscape:document-units="mm"
     inkscape:current-layer="layer1"
     showgrid="false"
     units="px"
     fit-margin-top="0"
     fit-margin-left="0"
     fit-margin-right="0"
     fit-margin-bottom="0"
     inkscape:window-width="1920"
     inkscape:window-height="1001"
     inkscape:window-x="-9"
     inkscape:window-y="-9"
     inkscape:window-maximized="1" />
  <metadata
     id="metadata23342">
    <rdf:RDF>
      <cc:Work
         rdf:about="">
        <dc:format>image/svg+xml</dc:format>
        <dc:type
           rdf:resource="http://purl.org/dc/dcmitype/StillImage" />
        <dc:title></dc:title>
      </cc:Work>
    </rdf:RDF>
  </metadata>
  <g
     inkscape:label="Layer 1"
     inkscape:groupmode="layer"
     id="layer1"
     transform="translate(-84.958192,-142.79782)">
    <g
       id="g23440"
       transform="translate(0.13229159,-0.13228808)">
      <path
         d="m 90.444592,143.0624 h -0.154519 c -0.404991,0.004 -0.666041,0.0469 -1.088671,0.1397 -0.575029,0.12594 -0.90875,0.21696 -1.42275,0.50094 -0.41945,0.23213 -0.62548,0.41805 -0.97578,0.74295 -0.30269,0.28046 -0.46214,0.45332 -0.7112,0.78211 -0.47202,0.62124 -0.71932,1.01777 -0.93487,1.7653 -0.13617,0.46955 -0.19473,0.80469 -0.19861,1.21426 v 0.0914 c 0.001,0.11818 0.006,0.24271 0.0152,0.37924 l 0.18556,0.16087 -0.0194,0.0938 0.18168,0.01 0.11465,0.11254 0.0762,-0.008 0.20038,0.13194 h 0.0871 l 0.0663,-0.048 0.096,0.0568 0.0571,-0.084 c -0.004,-0.16934 0,-0.26529 0.01,-0.43463 0.0166,-0.30338 0.0381,-0.47448 0.0953,-0.77293 0.0737,-0.38241 0.1203,-0.60184 0.2674,-0.96273 0.20603,-0.50377 0.36971,-0.78282 0.7366,-1.18886 0.32491,-0.35878 0.56762,-0.508 0.97508,-0.77294 0.320321,-0.20814 0.50835,-0.32032 0.86043,-0.47096 0.41098,-0.17639 0.6604,-0.24271 1.0989,-0.3309 0.35384,-0.0702 0.55703,-0.10443 0.91793,-0.11325 0.0907,-0.002 0.16686,-0.004 0.23918,-0.004 0.11818,0 0.22613,0.005 0.37324,0.0229 0.21872,0.0265 0.34113,0.0547 0.55421,0.11325 0.078,0.0219 0.122771,0.031 0.20038,0.0568 v -0.0656 l 0.57326,0.1785 -0.0765,-0.14111 0.268471,0.0183 -0.115361,-0.0938 0.048,-0.0476 -0.0571,-0.0561 0.14288,-0.0282 -0.12418,-0.14182 0.0773,-0.0444 c -0.33196,-0.19508 -0.53199,-0.28681 -0.89394,-0.42086 -0.65228,-0.23954 -1.06115,-0.33444 -1.74519,-0.34008"
         style="fill:#00549e;fill-opacity:1;fill-rule:nonzero;stroke:none;stroke-width:0.35277778"
         id="path22562"
         inkscape:connector-curvature="0" />
      <path
         d="m 90.377912,144.73524 c -0.4064,0 -0.64206,0.0303 -1.03258,0.14182 -0.3429,0.0981 -0.53446,0.1778 -0.84138,0.35842 -0.38805,0.22895 -0.59301,0.39793 -0.889,0.73554 -0.248,0.28363 -0.3623,0.46849 -0.53516,0.80186 -0.19332,0.37324 -0.30198,0.5962 -0.37218,1.0093 -0.0494,0.28681 -0.0543,0.45544 -0.0293,0.74472 l 0.0857,0.0667 0.067,-0.009 0.0864,0.0751 0.16228,0.0377 0.14358,0.2166 0.28646,-0.0279 0.0861,0.11324 c 0,-0.35595 0.0268,-0.56091 0.11466,-0.90522 0.091,-0.35737 0.15734,-0.56445 0.35383,-0.87701 0.176751,-0.28257 0.32526,-0.41028 0.56339,-0.64241 0.20391,-0.19755 0.31221,-0.32244 0.554921,-0.47201 0.272699,-0.16687 0.454379,-0.21837 0.764819,-0.30092 0.31327,-0.0833 0.498831,-0.1009 0.82197,-0.12312 0.17604,-0.012 0.31292,-0.024 0.45191,-0.024 0.118891,0 0.23989,0.009 0.38982,0.0339 0.16651,0.0272 0.25823,0.055 0.42016,0.10336 0.22825,0.0681 0.356661,0.10971 0.57362,0.20814 l 0.22965,-0.0381 -0.0384,-0.066 0.10513,-0.009 -0.13335,-0.11325 0.0378,-0.0377 -0.0861,-0.0762 -0.0381,-0.066 0.10548,-0.009 c -0.11677,-0.10019 -0.18662,-0.1524 -0.31609,-0.23601 -0.17604,-0.11501 -0.28575,-0.16651 -0.477659,-0.25435 -0.206731,-0.0956 -0.327031,-0.14288 -0.545041,-0.20814 -0.40358,-0.1203 -0.648759,-0.15028 -1.07033,-0.15099"
         style="fill:#00549e;fill-opacity:1;fill-rule:nonzero;stroke:none;stroke-width:0.35277778"
         id="path22574"
         inkscape:connector-curvature="0" />
      <path
         d="m 90.256342,146.50587 c -0.0307,0 -0.0632,0.001 -0.0984,0.004 -0.20814,0.0148 -0.3228,0.061 -0.51612,0.14006 -0.3362,0.13899 -0.525279,0.25823 -0.764819,0.52916 -0.184501,0.20779 -0.276931,0.34855 -0.36371,0.61278 -0.0628,0.1912 -0.0755,0.30797 -0.0861,0.5087 -0.004,0.0921 -0.004,0.14394 0,0.23636 l 0.12488,0.0473 0.0381,0.10442 0.1337,0.008 0.23001,0.24518 0.104781,0.0286 0.105129,0.10301 0.0762,0.0102 0.16298,0.0561 c 0.0663,-0.12558 0.1009,-0.19861 0.1524,-0.3302 0.0571,-0.14393 0.0543,-0.23847 0.12453,-0.37712 0.0589,-0.11535 0.10795,-0.17356 0.19121,-0.27305 0.15557,-0.18803 0.25541,-0.29527 0.46813,-0.41592 0.18874,-0.10548 0.31256,-0.14182 0.52599,-0.17851 0.0702,-0.0127 0.11042,-0.013 0.18168,-0.0198 0.0808,-0.007 0.147111,-0.0102 0.210611,-0.0102 0.0833,0 0.162629,0.006 0.267059,0.0208 0.079,0.0102 0.123121,0.0191 0.20143,0.0367 l -0.0197,-0.0751 0.0674,-0.0473 -0.13371,-0.11324 0.11466,-0.0653 -0.18239,-0.085 -0.13335,-0.14181 -0.0286,-0.1323 c -0.0614,-0.0741 -0.10407,-0.11183 -0.18168,-0.16967 -0.19897,-0.14746 -0.35807,-0.15947 -0.60255,-0.20709 -0.14464,-0.0282 -0.24165,-0.0505 -0.36971,-0.0505"
         style="fill:#00549e;fill-opacity:1;fill-rule:nonzero;stroke:none;stroke-width:0.35277778"
         id="path22578"
         inkscape:connector-curvature="0" />
      <path
         d="m 91.687102,147.99946 c -0.003,0.12206 -0.0152,0.19262 -0.0473,0.31115 -0.0632,0.22895 -0.136879,0.35278 -0.28716,0.53799 -0.11713,0.14358 -0.198969,0.2166 -0.35384,0.32032 -0.20673,0.13899 -0.35278,0.17286 -0.59196,0.24518 -0.17921,0.054 -0.28222,0.0861 -0.46849,0.10372 -0.0765,0.007 -0.129119,0.0113 -0.19332,0.0113 -0.0229,0 -0.0473,-6.8e-4 -0.0748,-0.002 l 0.096,0.10372 -0.01,0.15134 0.0953,0.0466 -0.0667,0.0751 0.153101,0.10407 -0.01,0.066 0.0861,0.10336 0.12383,0.133 -0.019,0.037 0.200729,0.10407 c 0.1471,0.048 0.237421,0.0617 0.391581,0.066 0.0162,3.5e-4 0.0325,3.5e-4 0.0476,3.5e-4 0.19192,0 0.31433,-0.0328 0.5073,-0.0949 0.25717,-0.0825 0.40111,-0.15381 0.61207,-0.32032 0.21061,-0.16616 0.3108,-0.29034 0.44944,-0.51894 0.15134,-0.24941 0.22648,-0.40886 0.26705,-0.69779 0.0226,-0.15699 0.0261,-0.248 0.01,-0.4064 l -0.0857,-0.0466 -0.0575,-0.0942 -0.1524,0.019 -0.21978,-0.2928 -0.21061,0.0476 0.009,-0.0568 z"
         style="fill:#e32119;fill-opacity:1;fill-rule:nonzero;stroke:none;stroke-width:0.35277778"
         id="path22582"
         inkscape:connector-curvature="0" />
      <path
         d="m 93.656242,148.03639 -0.15275,0.0575 c -0.0494,0.32738 -0.0864,0.51188 -0.18133,0.83009 -0.11077,0.37042 -0.15416,0.5969 -0.36371,0.92357 -0.29246,0.45826 -0.55951,0.67486 -1.0414,0.9338 -0.15135,0.0819 -0.24236,0.11571 -0.40147,0.17886 -0.29033,0.11712 -0.45825,0.18204 -0.76482,0.24554 -0.2413,0.0512 -0.3877,0.0762 -0.62194,0.0762 -0.0155,0 -0.031,0 -0.0469,-3.7e-4 -0.22225,-0.003 -0.345369,-0.031 -0.5648,-0.066 -0.20214,-0.0328 -0.32209,-0.0367 -0.51576,-0.10336 -0.11183,-0.0388 -0.16616,-0.0829 -0.27729,-0.12277 -0.11571,-0.0427 -0.18168,-0.0646 -0.30233,-0.0921 l 0.025,0.23318 -0.0861,0.019 0.14358,0.25471 h -0.0861 l 0.2868,0.2353 -0.11465,0.0388 c 0.19897,0.1651 0.3235,0.24871 0.55422,0.36759 0.53657,0.27587 0.90558,0.3362 1.51024,0.34855 0.049,0.001 0.0949,0.002 0.13864,0.002 0.25012,0 0.42862,-0.019 0.70273,-0.0773 0.46602,-0.0981 0.71896,-0.22119 1.12783,-0.46249 0.52811,-0.31115 0.83644,-0.53164 1.17581,-1.03681 0.26705,-0.39794 0.34184,-0.6724 0.46884,-1.13171 0.0843,-0.30763 0.11677,-0.48578 0.1524,-0.80187 0.0116,-0.0995 0.0131,-0.15557 0.0194,-0.25506 l -0.0575,-0.0751 -0.13335,0.009 -0.0106,-0.11324 -0.24765,-0.0663 -0.0289,-0.21696 -0.14287,0.019 z"
         style="fill:#e32119;fill-opacity:1;fill-rule:nonzero;stroke:none;stroke-width:0.35277778"
         id="path22586"
         inkscape:connector-curvature="0" />
      <path
         d="m 94.899503,147.51795 -0.0385,0.0476 c 0.0526,0.20179 0.0755,0.31962 0.0861,0.52811 0.009,0.19156 -0.006,0.29916 -0.0194,0.49072 -0.025,0.36124 -0.0215,0.57114 -0.10513,0.92427 -0.0794,0.33761 -0.150281,0.52423 -0.296331,0.83891 -0.22225,0.48048 -0.38417,0.74436 -0.73625,1.14124 -0.27904,0.31573 -0.47237,0.46496 -0.8128,0.71684 -0.26387,0.19685 -0.40957,0.31856 -0.70661,0.46249 -0.32138,0.15522 -0.52246,0.20073 -0.8696,0.28328 -0.47096,0.11078 -0.7493,0.127 -1.23366,0.14111 -0.12347,0.004 -0.22648,0.006 -0.3242,0.006 -0.15699,0 -0.30128,-0.006 -0.49777,-0.024 -0.21379,-0.0208 -0.33514,-0.0296 -0.54504,-0.0762 -0.19791,-0.0434 -0.31574,-0.061 -0.49672,-0.15134 -0.11394,-0.0561 -0.1778,-0.091 -0.27763,-0.16898 l -0.12383,-0.01 -0.0765,-0.0473 -0.0191,0.11324 h -0.0861 l -0.10548,0.11289 -0.1143,0.01 0.0857,0.10407 -0.01,0.0377 c 0.18521,0.19332 0.30304,0.29281 0.52529,0.44309 0.3556,0.24024 0.5969,0.31715 1.00471,0.45262 0.27728,0.0928 0.43744,0.13864 0.72602,0.18944 0.33125,0.0572 0.52387,0.0635 0.86007,0.0649 0.0356,3.5e-4 0.0706,3.5e-4 0.10407,3.5e-4 0.51999,0 0.84878,-0.0353 1.37759,-0.16933 0.35666,-0.0907 0.55492,-0.15981 0.88971,-0.31115 0.56162,-0.25365 0.86219,-0.4565 1.31904,-0.86784 0.37817,-0.34184 0.56197,-0.5715 0.85054,-0.9913 0.25753,-0.37359 0.39159,-0.59831 0.56339,-1.01777 0.24694,-0.60113 0.34114,-0.97472 0.36371,-1.62242 0.0127,-0.37218 0.0229,-0.59055 -0.067,-0.95285 -0.0109,-0.0437 -0.0159,-0.0699 -0.0289,-0.11254 l -0.17181,-0.0952 -0.0286,-0.0847 -0.28681,-0.0758 -0.0762,-0.16898 -0.0861,0.0945 -0.14358,-0.16122 -0.0286,0.0381 -0.14323,-0.10442 z"
         style="fill:#e32119;fill-opacity:1;fill-rule:nonzero;stroke:none;stroke-width:0.35277778"
         id="path22590"
         inkscape:connector-curvature="0" />
      <path
         d="m 99.874762,147.36686 v -1.17228 h 0.332318 c 0.24412,0 0.38805,0.16898 0.38805,0.57644 0,0.37641 -0.11818,0.59584 -0.35666,0.59584 z m 0,-1.89336 v -1.14758 h 0.363708 c 0.21273,0 0.34502,0.16968 0.34502,0.54574 0,0.41381 -0.13829,0.60184 -0.38911,0.60184 z m 0.551388,-1.85596 h -1.429098 v 4.4704 h 1.466848 c 0.60184,0 1.02235,-0.40146 1.02235,-1.26048 0,-0.55209 -0.23248,-0.89605 -0.61454,-1.00294 v -0.025 c 0.33796,-0.10054 0.58914,-0.42651 0.58914,-1.0407 0,-0.78951 -0.39511,-1.14123 -1.0347,-1.14123"
         style="fill:#19171c;fill-opacity:1;fill-rule:nonzero;stroke:none;stroke-width:0.35277778"
         id="path22594"
         inkscape:connector-curvature="0" />
      <path
         d="m 104.14333,144.73358 h -0.81562 v 2.33186 c 0,0.21978 -0.11889,0.40146 -0.29457,0.40146 -0.20708,0 -0.26988,-0.14993 -0.26988,-0.30691 v -2.42641 h -0.81491 v 2.72732 c 0,0.43216 0.30092,0.70168 0.68333,0.70168 0.29492,0 0.53939,-0.14393 0.70238,-0.4004 h 0.006 v 0.32596 h 0.80327 z"
         style="fill:#19171c;fill-opacity:1;fill-rule:nonzero;stroke:none;stroke-width:0.35277778"
         id="path22598"
         inkscape:connector-curvature="0" />
      <path
         d="m 106.05169,144.69605 c -0.27023,0 -0.45826,0.16969 -0.57079,0.42016 h -0.007 v -0.38277 h -0.80821 v 3.35457 h 0.82127 v -2.22568 c 0,-0.30127 0.24447,-0.40146 0.48224,-0.40146 0.0631,0 0.21379,0.0123 0.31997,0.031 v -0.77082 c -0.0628,-0.0187 -0.17533,-0.025 -0.23777,-0.025"
         style="fill:#19171c;fill-opacity:1;fill-rule:nonzero;stroke:none;stroke-width:0.35277778"
         id="path22602"
         inkscape:connector-curvature="0" />
      <path
         d="m 107.68759,144.65819 c -0.58244,0 -1.08444,0.36371 -1.08444,1.02835 v 1.47355 c 0,0.65864 0.46426,0.9966 1.0728,0.9966 0.61383,0 1.02129,-0.31962 1.02129,-0.89641 v -0.29492 h -0.72672 v 0.25717 c 0,0.13829 -0.0698,0.27587 -0.26423,0.27587 -0.19368,0 -0.27552,-0.13758 -0.27552,-0.32632 v -1.53564 c 0,-0.17568 0.0878,-0.30727 0.27552,-0.30727 0.18203,0 0.26423,0.11254 0.26423,0.26953 v 0.25047 h 0.72672 v -0.30022 c 0,-0.52034 -0.38841,-0.89076 -1.00965,-0.89076"
         style="fill:#19171c;fill-opacity:1;fill-rule:nonzero;stroke:none;stroke-width:0.35277778"
         id="path22606"
         inkscape:connector-curvature="0" />
      <path
         d="m 109.95753,143.61771 h -0.82091 v 4.4704 h 0.82091 v -1.11619 l 0.22578,-0.41416 0.35771,1.53035 h 0.86466 l -0.58279,-2.21333 0.58279,-1.14088 h -0.81456 l -0.63359,1.34796 z"
         style="fill:#19171c;fill-opacity:1;fill-rule:nonzero;stroke:none;stroke-width:0.35277778"
         id="path22610"
         inkscape:connector-curvature="0" />
      <path
         d="m 112.68655,143.61771 h -0.82127 v 4.4704 h 0.82127 v -2.33257 c 0,-0.22613 0.11959,-0.40746 0.29492,-0.40746 0.20638,0 0.26317,0.15029 0.26317,0.31292 v 2.42711 h 0.81527 v -2.73368 c 0,-0.43285 -0.30127,-0.69638 -0.67698,-0.69638 -0.29421,0 -0.52705,0.12559 -0.68968,0.37642 h -0.007 z"
         style="fill:#19171c;fill-opacity:1;fill-rule:nonzero;stroke:none;stroke-width:0.35277778"
         id="path22622"
         inkscape:connector-curvature="0" />
      <path
         d="m 115.56254,147.51058 c -0.15064,0 -0.23883,-0.13723 -0.23883,-0.4759 0,-0.33866 0.15699,-0.50729 0.36371,-0.50729 h 0.15734 v 0.65123 c 0,0.19473 -0.13793,0.33196 -0.28222,0.33196 m 0.0621,-2.85221 c -0.62617,0 -1.05904,0.35137 -1.05904,0.89041 v 0.28822 h 0.73978 v -0.26952 c 0,-0.13829 0.0684,-0.25682 0.26281,-0.25682 0.18909,0 0.27658,0.10618 0.27658,0.25682 v 0.47025 h -0.17603 c -0.62089,0.006 -1.17228,0.37606 -1.17228,1.09714 0,0.71508 0.34501,1.01565 0.74577,1.01565 0.19473,0 0.50835,-0.10019 0.64629,-0.40111 h 0.019 c 0.0123,0.20038 0.031,0.31997 0.031,0.33867 h 0.75319 c 0,-0.0628 -0.0317,-0.48296 -0.0317,-0.76482 v -1.72438 c 0,-0.59584 -0.40182,-0.94051 -1.03541,-0.94051"
         style="fill:#19171c;fill-opacity:1;fill-rule:nonzero;stroke:none;stroke-width:0.35277778"
         id="path22626"
         inkscape:connector-curvature="0" />
      <path
         d="m 118.55448,144.69605 c -0.26917,0 -0.45791,0.16969 -0.57009,0.42016 h -0.006 v -0.38277 h -0.80963 v 3.35457 h 0.82127 v -2.22568 c 0,-0.30127 0.24447,-0.40146 0.48225,-0.40146 0.0628,0 0.21378,0.0123 0.31961,0.031 v -0.77082 c -0.0621,-0.0187 -0.17533,-0.025 -0.23777,-0.025"
         style="fill:#19171c;fill-opacity:1;fill-rule:nonzero;stroke:none;stroke-width:0.35277778"
         id="path22630"
         inkscape:connector-curvature="0" />
      <path
         d="m 120.22302,147.48585 c -0.15734,0 -0.25717,-0.12488 -0.25717,-0.31362 v -1.56069 c 0,-0.21308 0.11253,-0.31961 0.26281,-0.31961 0.15064,0 0.30727,0.13723 0.30727,0.35665 v 1.44851 c 0,0.23248 -0.14428,0.38876 -0.31291,0.38876 m 1.12183,-3.86821 h -0.81456 v 1.31022 h -0.007 c -0.15099,-0.18803 -0.36301,-0.26952 -0.58314,-0.26952 -0.50836,0 -0.79622,0.37006 -0.79622,0.79622 v 1.87501 c 0,0.4512 0.22542,0.82091 0.77082,0.82091 0.21942,0 0.48295,-0.13194 0.63394,-0.37606 h 0.0187 l 0.0116,0.31362 h 0.76552 z"
         style="fill:#19171c;fill-opacity:1;fill-rule:nonzero;stroke:none;stroke-width:0.35277778"
         id="path22634"
         inkscape:connector-curvature="0" />
      <path
         d="m 122.89979,143.99984 h -0.82091 v 0.75882 h -0.29493 v 0.64559 h 0.29493 v 2.05669 c 0,0.47661 0.33161,0.67734 0.74577,0.67734 0.16968,0 0.37006,-0.031 0.5334,-0.0879 v -0.65793 c -0.0695,0.018 -0.17569,0.0307 -0.27058,0.0307 -0.13723,0 -0.18768,-0.0751 -0.18768,-0.20074 v -1.81821 h 0.47025 v -0.64559 h -0.47025 z"
         style="fill:#19171c;fill-opacity:1;fill-rule:nonzero;stroke:none;stroke-width:0.35277778"
         id="path22638"
         inkscape:connector-curvature="0" />
      <path
         d="m 100.14629,149.05483 c -0.720718,0 -1.291518,0.41346 -1.291518,1.15358 v 2.28847 c 0,0.78352 0.54575,1.16629 1.285878,1.16629 0.68262,0 1.20332,-0.41417 1.20332,-1.11619 v -0.45791 h -0.80186 v 0.40781 c 0,0.23178 -0.15699,0.38841 -0.38876,0.38841 -0.257178,0 -0.401818,-0.15663 -0.401818,-0.42615 v -2.23203 c 0,-0.24412 0.12524,-0.40711 0.394758,-0.40711 0.23883,0 0.39582,0.15064 0.39582,0.38841 v 0.41981 h 0.80186 v -0.4953 c 0,-0.68968 -0.5267,-1.07809 -1.19768,-1.07809"
         style="fill:#19171c;fill-opacity:1;fill-rule:nonzero;stroke:none;stroke-width:0.35277778"
         id="path22642"
         inkscape:connector-curvature="0" />
      <path
         d="m 102.88642,153.00463 c -0.18803,0 -0.27587,-0.13794 -0.27587,-0.30727 v -1.54199 c 0,-0.17568 0.0815,-0.31962 0.26952,-0.31962 0.18168,0 0.28187,0.13759 0.28187,0.31327 v 1.54234 c 0,0.16334 -0.0621,0.31327 -0.27552,0.31327 m 0,-2.84021 c -0.58949,0 -1.10314,0.35136 -1.10314,1.02834 v 1.45521 c 0,0.69497 0.48225,1.0153 1.10314,1.0153 0.59584,0 1.09714,-0.32597 1.09714,-1.022 v -1.47285 c 0,-0.68439 -0.514,-1.004 -1.09714,-1.004"
         style="fill:#19171c;fill-opacity:1;fill-rule:nonzero;stroke:none;stroke-width:0.35277778"
         id="path22646"
         inkscape:connector-curvature="0" />
      <path
         d="m 107.37901,150.16449 c -0.30127,0 -0.5521,0.13194 -0.74648,0.39511 h -0.0127 c -0.0935,-0.26317 -0.34431,-0.39511 -0.62724,-0.39511 -0.29457,0 -0.54469,0.13194 -0.70132,0.38241 h -0.006 v -0.30727 H 104.476 v 3.35492 h 0.82127 v -2.33892 c 0,-0.21978 0.11994,-0.40146 0.29527,-0.40146 0.20602,0 0.26282,0.15064 0.26282,0.31397 v 2.42641 h 0.82127 v -2.35162 c 0.007,-0.21943 0.12559,-0.38876 0.30092,-0.38876 0.20108,0 0.26387,0.15064 0.26387,0.31397 v 2.42641 h 0.81457 v -2.73403 c 0,-0.43251 -0.30692,-0.69603 -0.67663,-0.69603"
         style="fill:#19171c;fill-opacity:1;fill-rule:nonzero;stroke:none;stroke-width:0.35277778"
         id="path22658"
         inkscape:connector-curvature="0" />
      <path
         d="m 109.70188,153.01112 c -0.15628,0 -0.30092,-0.11924 -0.30092,-0.33831 v -1.46721 c 0,-0.25682 0.13159,-0.37641 0.30092,-0.37641 0.16334,0 0.26388,0.11289 0.26388,0.29492 v 1.58609 c 0,0.20073 -0.11395,0.30092 -0.26388,0.30092 m 0.34537,-2.84057 c -0.23213,0 -0.50165,0.14429 -0.64629,0.37677 h -0.0124 v -0.30762 h -0.80892 v 4.36456 h 0.82127 v -1.22343 h 0.013 c 0.13159,0.18239 0.35701,0.28258 0.55774,0.28258 0.52564,0 0.80892,-0.37042 0.80892,-0.80892 v -1.85632 c 0,-0.4639 -0.20672,-0.82762 -0.73342,-0.82762"
         style="fill:#19171c;fill-opacity:1;fill-rule:nonzero;stroke:none;stroke-width:0.35277778"
         id="path22662"
         inkscape:connector-curvature="0" />
      <path
         d="m 112.66592,150.20227 c -0.27023,0 -0.45755,0.16933 -0.57079,0.42016 h -0.006 v -0.38277 h -0.80822 v 3.35492 h 0.82092 v -2.22638 c 0,-0.30092 0.24482,-0.40146 0.48401,-0.40146 0.0621,0 0.21166,0.0127 0.31926,0.0314 v -0.77082 c -0.0635,-0.019 -0.17639,-0.025 -0.23883,-0.025"
         style="fill:#19171c;fill-opacity:1;fill-rule:nonzero;stroke:none;stroke-width:0.35277778"
         id="path22674"
         inkscape:connector-curvature="0" />
      <path
         d="m 114.02309,151.63148 v -0.50765 c 0,-0.16298 0.0878,-0.30691 0.27587,-0.30691 0.18803,0 0.26988,0.13793 0.26988,0.30691 v 0.50765 z m 0.26917,-1.4672 c -0.60149,0 -1.09079,0.38276 -1.09079,1.06644 v 1.42311 c 0,0.67028 0.4639,1.00965 1.10349,1.00965 0.37641,0 0.67733,-0.0755 0.95285,-0.20708 l -0.14358,-0.58949 c -0.16333,0.0561 -0.40816,0.13158 -0.63923,0.13158 -0.27587,0 -0.45191,-0.14393 -0.45191,-0.4392 v -0.34432 h 1.27247 v -1.05304 c 0,-0.60254 -0.36971,-0.99765 -1.0033,-0.99765"
         style="fill:#19171c;fill-opacity:1;fill-rule:nonzero;stroke:none;stroke-width:0.35277778"
         id="path22678"
         inkscape:connector-curvature="0" />
      <path
         d="m 116.72529,150.16438 c -0.71473,0 -0.98425,0.49495 -0.98425,0.94086 0,0.40746 0.22013,0.68933 0.5334,0.9465 l 0.25682,0.21943 c 0.25118,0.20038 0.38277,0.35101 0.38277,0.51999 0,0.16263 -0.0811,0.25083 -0.21308,0.25083 -0.18239,0 -0.26388,-0.14993 -0.27658,-0.38171 l -0.75812,0.0183 c 0.0505,0.72143 0.52,0.97825 1.0153,0.97825 0.71472,0 1.00965,-0.45826 1.00965,-0.93416 0,-0.40146 -0.20673,-0.68932 -0.57009,-1.00965 l -0.31398,-0.27587 c -0.19508,-0.16933 -0.32561,-0.29492 -0.32561,-0.4325 0,-0.12559 0.0624,-0.23813 0.23142,-0.23813 0.17533,0 0.24483,0.13758 0.26917,0.40146 l 0.69674,-0.019 c -0.0374,-0.71508 -0.42651,-0.9846 -0.95356,-0.9846"
         style="fill:#19171c;fill-opacity:1;fill-rule:nonzero;stroke:none;stroke-width:0.35277778"
         id="path22682"
         inkscape:connector-curvature="0" />
      <path
         d="m 119.07141,150.16438 c -0.71543,0 -0.98496,0.49495 -0.98496,0.94086 0,0.40746 0.21908,0.68933 0.53305,0.9465 l 0.25647,0.21943 c 0.25188,0.20038 0.38276,0.35101 0.38276,0.51999 0,0.16263 -0.0815,0.25083 -0.21307,0.25083 -0.18168,0 -0.26317,-0.14993 -0.27587,-0.38171 l -0.75848,0.0183 c 0.0497,0.72143 0.5207,0.97825 1.0153,0.97825 0.71578,0 1.00965,-0.45826 1.00965,-0.93416 0,-0.40146 -0.20638,-0.68932 -0.5708,-1.00965 l -0.31291,-0.27587 c -0.19438,-0.16933 -0.32632,-0.29492 -0.32632,-0.4325 0,-0.12559 0.0628,-0.23813 0.23248,-0.23813 0.17533,0 0.24342,0.13758 0.26882,0.40146 l 0.69603,-0.019 c -0.0374,-0.71508 -0.42616,-0.9846 -0.95215,-0.9846"
         style="fill:#19171c;fill-opacity:1;fill-rule:nonzero;stroke:none;stroke-width:0.35277778"
         id="path22686"
         inkscape:connector-curvature="0" />
      <path
         inkscape:connector-curvature="0"
         id="path22688"
         style="fill:#19171c;fill-opacity:1;fill-rule:nonzero;stroke:none;stroke-width:0.35277778"
         d="m 121.29084,150.23967 h -0.82127 v 3.35456 h 0.82127 z m 0,-1.24778 h -0.82127 v 0.85337 h 0.82127 z" />
      <path
         d="m 122.91824,153.00463 c -0.18768,0 -0.27552,-0.13794 -0.27552,-0.30727 v -1.54199 c 0,-0.17568 0.0811,-0.31962 0.26917,-0.31962 0.18062,0 0.28116,0.13759 0.28116,0.31327 v 1.54234 c 0,0.16334 -0.0624,0.31327 -0.27481,0.31327 m 0,-2.84021 c -0.59055,0 -1.10384,0.35136 -1.10384,1.02834 v 1.45521 c 0,0.69497 0.48295,1.0153 1.10384,1.0153 0.59619,0 1.09679,-0.32597 1.09679,-1.022 v -1.47285 c 0,-0.68439 -0.51365,-1.004 -1.09679,-1.004"
         style="fill:#19171c;fill-opacity:1;fill-rule:nonzero;stroke:none;stroke-width:0.35277778"
         id="path22700"
         inkscape:connector-curvature="0" />
      <path
         d="m 126.03115,150.16449 c -0.29492,0 -0.53904,0.12559 -0.70203,0.36971 h -0.006 v -0.29457 h -0.80893 v 3.35492 h 0.82163 v -2.33892 c 0,-0.21978 0.11889,-0.40146 0.29387,-0.40146 0.20742,0 0.26386,0.15064 0.26386,0.31397 v 2.42641 h 0.81492 v -2.73403 c 0,-0.43251 -0.30126,-0.69603 -0.67697,-0.69603"
         style="fill:#19171c;fill-opacity:1;fill-rule:nonzero;stroke:none;stroke-width:0.35277778"
         id="path22704"
         inkscape:connector-curvature="0" />
    </g>
  </g>
</svg>
