<?xml version="1.0" encoding="UTF-8" standalone="no"?>
<!-- Created with Inkscape (http://www.inkscape.org/) by Marsupilami -->
<svg
   xmlns:svg="http://www.w3.org/2000/svg"
   xmlns="http://www.w3.org/2000/svg"
   version="1.0"
   width="1024"
   height="174"
   viewBox="0 0 86.932503 14.76"
   id="svg2248">
  <defs
     id="defs2250" />
  <g
     transform="translate(-410.81946,-410.69647)"
     id="layer1">
    <path
       d="M 4.25,0 C 1.0762499,2.2356517e-10 0,2.27875 0,3.75 C 0,4.9924999 0,5.19125 0,5.8125 C 0,7.3900002 1.41375,9.1875 3.53125,9.1875 C 5.3662499,9.1874996 7.61375,9.1875 7.96875,9.1875 C 8.4524999,9.1874996 8.5625,9.51125 8.5625,9.71875 C 8.5624997,9.9274999 8.5625,10.07375 8.5625,10.25 C 8.5624997,10.53125 8.36625,10.78125 7.96875,10.78125 C 7.46625,10.78125 0.21875,10.78125 0.21875,10.78125 L 0.21875,14.59375 C 0.21875,14.59375 6.10125,14.59375 9.625,14.59375 C 12.1725,14.59375 13.625,12.28 13.625,10.75 C 13.625,9.7137499 13.625,9.3075 13.625,8.65625 C 13.625,6.4825001 11.54125,5.03125 9.4375,5.03125 C 7.6037498,5.0312502 5.63625,5.03125 5.28125,5.03125 C 4.7987499,5.0312502 4.6875,4.7075 4.6875,4.5 C 4.6875002,4.2924999 4.6875,4.30125 4.6875,4.125 C 4.6875002,3.84375 4.885,3.59375 5.28125,3.59375 C 5.7849998,3.59375 13,3.59375 13,3.59375 L 13,0 C 13,2.2356517e-10 4.8725,0 4.25,0 z M 15.40625,0 C 15.40625,0.8 15.40625,9.35625 15.40625,10.0625 C 15.40625,12.4275 17.07625,14.75 21,14.75 C 23.275,14.75 22.00625,14.75 24.28125,14.75 C 28.381249,14.75 29.75,12.64875 29.75,10.0625 C 29.749999,9.3562497 29.75,0.8 29.75,0 C 28.32,0 24.84375,0 24.84375,0 C 24.843751,0 24.84375,9.08875 24.84375,9.5625 C 24.843751,10.26875 24.5575,10.8125 23.59375,10.8125 L 21.53125,10.8125 C 20.568751,10.8125 20.28125,10.2925 20.28125,9.5625 C 20.281249,9.0887503 20.28125,0 20.28125,0 C 20.281249,0 16.835,0 15.40625,0 z M 31.875,0 L 31.875,14.59375 L 42.5,14.59375 L 42.5,10.8125 L 36.71875,10.8125 L 36.71875,0 L 31.875,0 z M 43.78125,0.03125 L 43.78125,3.65625 L 50.21875,3.65625 L 43.6875,10.78125 L 43.6875,14.59375 L 56.4375,14.59375 L 56.4375,10.78125 L 49.84375,10.78125 L 56.21875,3.625 L 56.21875,0.03125 L 43.78125,0.03125 z M 58.3125,0.03125 L 58.3125,14.59375 L 70.1875,14.59375 L 70.1875,10.78125 L 63,10.78125 L 63,8.90625 L 68.6875,8.90625 L 68.6875,5.3125 L 63,5.3125 L 63,3.59375 L 69.78125,3.59375 L 69.78125,0.03125 L 58.3125,0.03125 z M 71.9375,0.03125 L 71.9375,14.59375 L 76.46875,14.59375 L 76.46875,9.1875 L 76.875,9.1875 L 81.375,14.59375 L 86.9375,14.59375 C 86.937497,14.59375 82.6825,9.5825 82.25,9.0625 C 83.159998,9.0625002 85.4375,7.7725 85.4375,5.15625 L 85.4375,3.90625 C 85.437502,2.8600001 84.6575,0.03125 80.84375,0.03125 L 71.9375,0.03125 z M 76.34375,3.5625 L 79.78125,3.5625 C 80.826247,3.5624999 80.84375,4.25625 80.84375,4.75 C 80.843748,5.5187501 80.49,5.78125 79.875,5.78125 L 76.34375,5.78125 L 76.34375,3.5625 z "
       transform="translate(410.81946,410.69647)"
       style="fill:#1d59af;fill-opacity:1;fill-rule:nonzero;stroke:none"
       id="path25910" />
  </g>
</svg>
