<svg xmlns="http://www.w3.org/2000/svg" data-name="Layer 1" viewBox="0 0 402.936 226.678"><path fill-rule="evenodd" d="M13.23 217.142 0 183.64h11.856l8.756 27.01c2.142 6.612 11.9 8.605 14.769.913l10.542-28.212h12.566l-13.654 32.575c-4.954 12.831-26.152 15.31-31.604 1.216Zm50.428-33.324h10.155v42.107H63.66v-42.107Zm20.063.248h30.217c27.72.038 24.966 42.642-.743 41.611H83.721v-41.611Zm9.656 8.055v25.5h18.064c15.755.633 17.443-25.476.455-25.5Zm197.156-8.055h-25.104c-27.72.038-24.965 42.642.743 41.611h24.36v-8.055h-22.605c-15.755.632-17.443-25.477-.456-25.5h23.062v-8.056Zm-106.647 0h-25.564c-28.229.038-25.424 42.642.756 41.611h24.808v-8.055h-23.021a11.719 11.719 0 0 1-11.934-8.267h34.14v-8.967h-34.362c1.381-4.57 5.195-8.258 11.693-8.267h23.484v-8.055Zm22.033-.245h18.813a14.965 14.965 0 0 1 14.922 14.921V211a14.965 14.965 0 0 1-14.922 14.922H205.92A14.965 14.965 0 0 1 190.997 211v-12.258a14.965 14.965 0 0 1 14.922-14.921Zm1.368 7.975a7.094 7.094 0 0 0-7.073 7.073v12.004a7.094 7.094 0 0 0 7.073 7.074h16.077a7.094 7.094 0 0 0 7.073-7.074V198.87a7.094 7.094 0 0 0-7.073-7.073Zm104.301-7.975h18.814a14.965 14.965 0 0 1 14.922 14.921V211a14.965 14.965 0 0 1-14.922 14.922h-18.814A14.965 14.965 0 0 1 296.666 211v-12.258a14.965 14.965 0 0 1 14.922-14.921Zm1.37 7.975a7.094 7.094 0 0 0-7.075 7.073v12.004a7.094 7.094 0 0 0 7.074 7.074h16.077a7.094 7.094 0 0 0 7.073-7.074V198.87a7.094 7.094 0 0 0-7.074-7.073Zm56.243-7.975h18.814a14.965 14.965 0 0 1 14.921 14.921v26.8h-9.217v-26.673a7.094 7.094 0 0 0-7.073-7.073H370.57a7.094 7.094 0 0 0-7.074 7.073v26.672h-9.217v-26.799a14.965 14.965 0 0 1 14.922-14.921Z"/><path fill="#60af37" fill-rule="evenodd" d="M235.116 124.358c-17.979 9.228-42.341 19.14-60.283-69.456-7.739-56.587-62.143-40.062-46.99 7.047 10.64 33.076 29.162 85.29 69.093 92.104 14.907 1.02 28.64-3.84 38.18-29.695Zm25.119-45.297c-.16-25.376-23.352-39.494-24.48-55.43-1.349-16.581 16.584-29.927 31.781-20.506 9.704 6.366 10.517 16.693 10.131 27.677-.605 17.288-9.81 30.96-17.432 48.259Z"/></svg>